<svg xmlns="http://www.w3.org/2000/svg" width="1400" height="780" viewBox="0 0 1400 780">

<defs>
  <style>
    .axis { fill: none; stroke: #5d7096; stroke-width: 1.3; }
    .grid { fill: none; stroke: #24324f; stroke-width: 1; }
    .tick { fill: #9db0d8; font-size: 15px; font-family: Inter,Segoe UI,sans-serif; }
    .legend { fill: #eaf1ff; font-size: 16px; font-family: Inter,Segoe UI,sans-serif; }
    .value { fill: #eaf1ff; font-size: 14px; font-family: Inter,Segoe UI,sans-serif; }
  </style>
  <marker id="arrow" viewBox="0 0 10 10" refX="9" refY="5" markerWidth="8" markerHeight="8" orient="auto-start-reverse">
    <path d="M 0 0 L 10 5 L 0 10 z" fill="#8fb3ff"/>
  </marker>
  <marker id="arrowGreen" viewBox="0 0 10 10" refX="9" refY="5" markerWidth="8" markerHeight="8" orient="auto-start-reverse">
    <path d="M 0 0 L 10 5 L 0 10 z" fill="#2ec4b6"/>
  </marker>
  <marker id="arrowOrange" viewBox="0 0 10 10" refX="9" refY="5" markerWidth="8" markerHeight="8" orient="auto-start-reverse">
    <path d="M 0 0 L 10 5 L 0 10 z" fill="#ff9f43"/>
  </marker>
</defs>

<rect x="0" y="0" width="1400" height="780" fill="#0b1020"/>
<text x="48" y="54" font-size="34" fill="#eaf1ff" font-family="Inter,Segoe UI,sans-serif" font-weight="700">Money Flow by Operating Condition</text>
<text x="48" y="88" font-size="20" fill="#9db0d8" font-family="Inter,Segoe UI,sans-serif">Import cost, export revenue, and net spend per hour</text>
<rect x="120" y="170" width="1180" height="520" fill="#101a33" rx="16"/>
<line class="grid" x1="120" y1="170.0" x2="1300" y2="170.0"/>
<text class="tick" x="105" y="175.0" text-anchor="end">+0.40</text>
<line class="grid" x1="120" y1="244.3" x2="1300" y2="244.3"/>
<text class="tick" x="105" y="249.3" text-anchor="end">+0.30</text>
<line class="grid" x1="120" y1="318.6" x2="1300" y2="318.6"/>
<text class="tick" x="105" y="323.6" text-anchor="end">+0.20</text>
<line class="grid" x1="120" y1="392.9" x2="1300" y2="392.9"/>
<text class="tick" x="105" y="397.9" text-anchor="end">+0.10</text>
<line class="grid" x1="120" y1="467.1" x2="1300" y2="467.1"/>
<text class="tick" x="105" y="472.1" text-anchor="end">+0.00</text>
<line class="grid" x1="120" y1="541.4" x2="1300" y2="541.4"/>
<text class="tick" x="105" y="546.4" text-anchor="end">-0.10</text>
<line class="grid" x1="120" y1="615.7" x2="1300" y2="615.7"/>
<text class="tick" x="105" y="620.7" text-anchor="end">-0.20</text>
<line class="grid" x1="120" y1="690.0" x2="1300" y2="690.0"/>
<text class="tick" x="105" y="695.0" text-anchor="end">-0.30</text>
<line x1="120" y1="467.1" x2="1300" y2="467.1" stroke="#8ba3d8" stroke-width="1.6"/>
<rect x="206.5" y="467.1" width="78.7" height="0.0" fill="#ff9f43" rx="4"/>
<rect x="308.8" y="467.1" width="78.7" height="170.9" fill="#2ec4b6" rx="4"/>
<rect x="411.1" y="467.1" width="78.7" height="170.9" fill="#22c55e" rx="4"/>
<text class="tick" x="316.7" y="726" text-anchor="middle">Midday solar surplus</text>
<text class="value" x="450.4" y="459.1" text-anchor="middle">-0.23</text>
<rect x="599.9" y="340.9" width="78.7" height="126.3" fill="#ff9f43" rx="4"/>
<rect x="702.1" y="467.1" width="78.7" height="0.0" fill="#2ec4b6" rx="4"/>
<rect x="804.4" y="340.9" width="78.7" height="126.3" fill="#f97316" rx="4"/>
<text class="tick" x="710.0" y="726" text-anchor="middle">Evening peak</text>
<text class="value" x="843.7" y="332.9" text-anchor="middle">+0.17</text>
<rect x="993.2" y="311.1" width="78.7" height="156.0" fill="#ff9f43" rx="4"/>
<rect x="1095.5" y="467.1" width="78.7" height="0.0" fill="#2ec4b6" rx="4"/>
<rect x="1197.7" y="311.1" width="78.7" height="156.0" fill="#f97316" rx="4"/>
<text class="tick" x="1103.3" y="726" text-anchor="middle">Overnight charge</text>
<text class="value" x="1237.1" y="303.1" text-anchor="middle">+0.21</text>
<rect x="1000" y="200" width="15" height="15" fill="#ff9f43" rx="3"/>
<text class="legend" x="1024" y="213">Import cost</text>
<rect x="1000" y="228" width="15" height="15" fill="#2ec4b6" rx="3"/>
<text class="legend" x="1024" y="241">Export revenue</text>
<rect x="1000" y="256" width="15" height="15" fill="#22c55e" rx="3"/>
<text class="legend" x="1024" y="269">Net</text>
</svg>
