<svg xmlns="http://www.w3.org/2000/svg" width="1400" height="780" viewBox="0 0 1400 780">

<defs>
  <style>
    .axis { fill: none; stroke: #5d7096; stroke-width: 1.3; }
    .grid { fill: none; stroke: #24324f; stroke-width: 1; }
    .tick { fill: #9db0d8; font-size: 15px; font-family: Inter,Segoe UI,sans-serif; }
    .legend { fill: #eaf1ff; font-size: 16px; font-family: Inter,Segoe UI,sans-serif; }
    .value { fill: #eaf1ff; font-size: 14px; font-family: Inter,Segoe UI,sans-serif; }
  </style>
  <marker id="arrow" viewBox="0 0 10 10" refX="9" refY="5" markerWidth="8" markerHeight="8" orient="auto-start-reverse">
    <path d="M 0 0 L 10 5 L 0 10 z" fill="#8fb3ff"/>
  </marker>
  <marker id="arrowGreen" viewBox="0 0 10 10" refX="9" refY="5" markerWidth="8" markerHeight="8" orient="auto-start-reverse">
    <path d="M 0 0 L 10 5 L 0 10 z" fill="#2ec4b6"/>
  </marker>
  <marker id="arrowOrange" viewBox="0 0 10 10" refX="9" refY="5" markerWidth="8" markerHeight="8" orient="auto-start-reverse">
    <path d="M 0 0 L 10 5 L 0 10 z" fill="#ff9f43"/>
  </marker>
</defs>

<rect x="0" y="0" width="1400" height="780" fill="#0b1020"/>
<text x="48" y="54" font-size="34" fill="#eaf1ff" font-family="Inter,Segoe UI,sans-serif" font-weight="700">Cumulative Savings Through Time</text>
<text x="48" y="88" font-size="20" fill="#9db0d8" font-family="Inter,Segoe UI,sans-serif">Each point is cumulative sum of interval savings (AUD)</text>
<rect x="110" y="140" width="1210" height="540" fill="#101a33" rx="16"/>
<line class="grid" x1="110" y1="140.0" x2="1320" y2="140.0"/>
<text class="tick" x="96" y="145.0" text-anchor="end">+0.63</text>
<line class="grid" x1="110" y1="248.0" x2="1320" y2="248.0"/>
<text class="tick" x="96" y="253.0" text-anchor="end">+0.44</text>
<line class="grid" x1="110" y1="356.0" x2="1320" y2="356.0"/>
<text class="tick" x="96" y="361.0" text-anchor="end">+0.26</text>
<line class="grid" x1="110" y1="464.0" x2="1320" y2="464.0"/>
<text class="tick" x="96" y="469.0" text-anchor="end">+0.07</text>
<line class="grid" x1="110" y1="572.0" x2="1320" y2="572.0"/>
<text class="tick" x="96" y="577.0" text-anchor="end">-0.11</text>
<line class="grid" x1="110" y1="680.0" x2="1320" y2="680.0"/>
<text class="tick" x="96" y="685.0" text-anchor="end">-0.30</text>
<polyline points="110.00,501.70 112.80,499.96 115.61,490.91 118.41,480.61 121.22,466.80 124.02,459.26 126.83,446.50 129.63,439.62 132.43,432.72 135.24,425.10 138.04,421.95 140.85,416.61 143.65,413.65 146.45,408.92 149.26,406.28 152.06,404.59 154.87,402.93 157.67,401.27 160.48,399.61 163.28,398.05 166.08,395.98 168.89,394.24 171.69,391.35 174.50,389.00 177.30,382.40 180.10,372.48 182.91,367.78 185.71,361.72 188.52,357.73 191.32,354.28 194.13,351.26 196.93,340.06 199.73,328.33 202.54,315.93 205.34,312.72 208.15,312.72 210.95,312.72 213.75,312.72 216.56,312.72 219.36,312.72 222.17,312.72 224.97,312.72 227.78,312.72 230.58,312.72 233.38,312.72 236.19,312.72 238.99,312.72 241.80,312.72 244.60,312.72 247.40,312.72 250.21,312.72 253.01,312.72 255.82,312.72 258.62,312.72 261.43,312.72 264.23,312.72 267.03,312.72 269.84,312.72 272.64,312.72 275.45,312.72 278.25,312.72 281.05,312.72 283.86,312.72 286.66,312.72 289.47,312.72 292.27,312.72 295.08,312.72 297.88,312.72 300.68,312.72 303.49,312.72 306.29,312.72 309.10,312.72 311.90,312.72 314.70,312.72 317.51,312.72 320.31,312.72 323.12,312.72 325.92,312.72 328.73,312.72 331.53,312.72 334.33,312.72 337.14,312.72 339.94,312.72 342.75,312.72 345.55,312.72 348.35,312.72 351.16,312.72 353.96,312.72 356.77,312.72 359.57,312.72 362.38,312.72 365.18,312.72 367.98,312.72 370.79,312.72 373.59,312.72 376.40,312.72 379.20,312.72 382.00,312.72 384.81,312.72 387.61,312.72 390.42,312.72 393.22,312.72 396.03,312.72 398.83,312.72 401.63,312.72 404.44,312.72 407.24,312.72 410.05,312.72 412.85,312.72 415.65,312.72 418.46,312.72 421.26,312.72 424.07,312.72 426.87,312.72 429.68,312.72 432.48,312.72 435.28,312.72 438.09,312.72 440.89,312.72 443.70,312.72 446.50,312.72 449.30,312.72 452.11,312.72 454.91,338.65 457.72,351.61 460.52,377.31 463.33,389.62 466.13,389.62 468.93,389.62 471.74,389.62 474.54,389.62 477.35,389.62 480.15,389.62 482.95,389.62 485.76,389.62 488.56,389.62 491.37,402.61 494.17,414.97 496.98,439.84 499.78,452.85 502.58,474.00 505.39,497.36 508.19,521.61 511.00,544.32 513.80,567.68 516.60,588.33 519.41,588.33 522.21,588.33 525.02,588.33 527.82,588.33 530.63,588.33 533.43,588.33 536.23,588.33 539.04,588.33 541.84,588.33 544.65,588.33 547.45,588.33 550.25,588.33 553.06,588.33 555.86,588.33 558.67,588.33 561.47,588.33 564.28,588.33 567.08,588.33 569.88,588.33 572.69,588.33 575.49,588.33 578.30,588.33 581.10,588.33 583.90,588.33 586.71,588.33 589.51,588.33 592.32,588.33 595.12,588.33 597.93,588.33 600.73,588.33 603.53,588.33 606.34,588.33 609.14,588.33 611.95,588.33 614.75,588.33 617.56,588.33 620.36,588.33 623.16,588.33 625.97,588.33 628.77,588.33 631.58,588.33 634.38,588.33 637.18,588.33 639.99,588.33 642.79,588.33 645.60,585.88 648.40,582.51 651.21,578.52 654.01,571.50 656.81,561.47 659.62,552.66 662.42,543.98 665.23,537.67 668.03,532.37 670.83,526.21 673.64,521.18 676.44,515.56 679.25,510.64 682.05,505.27 684.86,503.03 687.66,503.03 690.46,503.03 693.27,503.03 696.07,503.03 698.88,503.03 701.68,503.03 704.48,503.03 707.29,503.03 710.09,503.03 712.90,503.03 715.70,503.03 718.51,503.03 721.31,503.03 724.11,503.03 726.92,503.03 729.72,503.03 732.53,503.03 735.33,500.85 738.13,500.85 740.94,500.85 743.74,499.12 746.55,499.12 749.35,499.12 752.16,499.12 754.96,499.12 757.76,499.12 760.57,499.12 763.37,499.12 766.18,499.12 768.98,499.12 771.78,499.12 774.59,499.12 777.39,499.12 780.20,499.12 783.00,496.59 785.81,496.59 788.61,496.59 791.41,496.59 794.22,496.59 797.02,496.59 799.83,494.44 802.63,494.44 805.43,492.58 808.24,492.58 811.04,487.75 813.85,487.75 816.65,479.94 819.46,479.94 822.26,479.94 825.06,476.64 827.87,476.64 830.67,476.64 833.48,476.64 836.28,476.64 839.08,476.64 841.89,473.48 844.69,473.48 847.50,473.48 850.30,473.48 853.11,473.48 855.91,473.48 858.71,473.48 861.52,473.48 864.32,473.48 867.13,473.48 869.93,473.48 872.73,473.48 875.54,473.48 878.34,473.48 881.15,473.48 883.95,473.48 886.76,473.48 889.56,473.48 892.36,485.97 895.17,498.45 897.97,510.93 900.78,523.02 903.58,523.02 906.38,523.02 909.19,523.02 911.99,523.02 914.80,523.02 917.60,523.02 920.41,523.02 923.21,523.02 926.01,523.02 928.82,523.02 931.62,523.02 934.43,523.02 937.23,523.02 940.03,523.02 942.84,523.02 945.64,523.02 948.45,523.02 951.25,523.02 954.06,523.02 956.86,523.02 959.66,523.02 962.47,523.02 965.27,523.02 968.08,523.02 970.88,523.02 973.68,523.02 976.49,523.02 979.29,523.02 982.10,523.02 984.90,523.02 987.71,523.02 990.51,523.02 993.31,523.02 996.12,523.02 998.92,523.02 1001.73,523.02 1004.53,523.02 1007.33,523.02 1010.14,523.02 1012.94,523.02 1015.75,523.02 1018.55,523.02 1021.36,523.02 1024.16,523.02 1026.96,523.02 1029.77,523.02 1032.57,523.02 1035.38,523.02 1038.18,523.02 1040.98,523.04 1043.79,523.04 1046.59,523.04 1049.40,523.04 1052.20,523.04 1055.01,519.89 1057.81,512.72 1060.61,504.32 1063.42,500.46 1066.22,491.38 1069.03,482.90 1071.83,475.55 1074.63,466.32 1077.44,456.81 1080.24,447.08 1083.05,437.36 1085.85,425.41 1088.66,420.73 1091.46,420.73 1094.26,420.73 1097.07,420.73 1099.87,420.73 1102.68,420.73 1105.48,420.73 1108.29,418.57 1111.09,415.98 1113.89,411.43 1116.70,409.46 1119.50,409.46 1122.31,407.37 1125.11,407.37 1127.91,405.15 1130.72,400.91 1133.52,395.19 1136.33,389.47 1139.13,384.94 1141.94,379.26 1144.74,373.03 1147.54,367.02 1150.35,361.75 1153.15,356.08 1155.96,350.26 1158.76,345.13 1161.56,340.53 1164.37,336.18 1167.17,331.65 1169.98,327.16 1172.78,322.01 1175.59,316.17 1178.39,310.89 1181.19,305.37 1184.00,300.61 1186.80,295.97 1189.61,291.25 1192.41,286.74 1195.21,282.28 1198.02,282.28 1200.82,278.12 1203.63,274.43 1206.43,270.59 1209.24,266.77 1212.04,262.60 1214.84,255.11 1217.65,250.54 1220.45,242.42 1223.26,239.69 1226.06,234.46 1228.86,229.10 1231.67,223.48 1234.47,218.22 1237.28,214.26 1240.08,210.90 1242.89,207.36 1245.69,203.96 1248.49,202.31 1251.30,215.41 1254.10,241.25 1256.91,254.48 1259.71,279.54 1262.51,306.01 1265.32,306.01 1268.12,306.01 1270.93,306.01 1273.73,306.01 1276.54,306.01 1279.34,303.61 1282.14,298.40 1284.95,304.18 1287.75,304.18 1290.56,317.33 1293.36,317.33 1296.16,330.38 1298.97,341.03 1301.77,341.03 1304.58,341.03 1307.38,341.03 1310.19,341.03 1312.99,339.86 1315.79,339.86 1318.60,338.04 1320.00,335.79" fill="none" stroke="#2ec4b6" stroke-width="3.0"/>
<circle cx="1320.00" cy="335.79" r="5" fill="#2ec4b6"/>
<text class="value" x="1330.0" y="325.8" fill="#2ec4b6">optimizer: +0.293</text>
<polyline points="110.00,506.76 112.80,506.76 115.61,506.76 118.41,506.76 121.22,506.76 124.02,506.76 126.83,506.76 129.63,506.76 132.43,506.76 135.24,506.76 138.04,506.76 140.85,506.76 143.65,506.76 146.45,506.76 149.26,506.76 152.06,506.76 154.87,506.76 157.67,506.76 160.48,506.76 163.28,506.76 166.08,506.76 168.89,506.76 171.69,506.76 174.50,506.76 177.30,506.76 180.10,506.76 182.91,506.76 185.71,506.76 188.52,506.76 191.32,506.76 194.13,506.76 196.93,506.76 199.73,506.76 202.54,506.76 205.34,506.76 208.15,506.76 210.95,506.76 213.75,506.76 216.56,506.76 219.36,506.76 222.17,506.76 224.97,506.76 227.78,506.76 230.58,506.76 233.38,506.76 236.19,506.76 238.99,506.76 241.80,506.76 244.60,506.76 247.40,506.76 250.21,506.76 253.01,506.76 255.82,506.76 258.62,506.76 261.43,506.76 264.23,506.76 267.03,506.76 269.84,506.76 272.64,506.76 275.45,506.76 278.25,506.76 281.05,506.76 283.86,506.76 286.66,506.76 289.47,506.76 292.27,506.76 295.08,506.76 297.88,506.76 300.68,506.76 303.49,506.76 306.29,506.76 309.10,506.76 311.90,506.76 314.70,506.76 317.51,506.76 320.31,506.76 323.12,506.76 325.92,506.76 328.73,506.76 331.53,506.76 334.33,506.76 337.14,506.76 339.94,506.76 342.75,506.76 345.55,506.76 348.35,506.76 351.16,506.76 353.96,506.76 356.77,506.76 359.57,506.76 362.38,506.76 365.18,506.76 367.98,506.76 370.79,506.76 373.59,506.76 376.40,506.76 379.20,506.76 382.00,506.76 384.81,506.76 387.61,506.76 390.42,506.76 393.22,506.76 396.03,506.76 398.83,506.76 401.63,506.76 404.44,506.76 407.24,506.76 410.05,506.76 412.85,506.76 415.65,506.76 418.46,506.76 421.26,506.76 424.07,506.76 426.87,506.76 429.68,506.76 432.48,506.76 435.28,506.76 438.09,506.76 440.89,526.74 443.70,544.60 446.50,561.89 449.30,578.47 452.11,594.27 454.91,609.84 457.72,617.69 460.52,617.69 463.33,617.69 466.13,617.69 468.93,617.69 471.74,617.69 474.54,617.69 477.35,617.69 480.15,617.69 482.95,617.69 485.76,617.69 488.56,617.69 491.37,617.69 494.17,617.69 496.98,617.69 499.78,617.69 502.58,617.69 505.39,617.69 508.19,617.69 511.00,617.69 513.80,617.69 516.60,617.69 519.41,617.69 522.21,617.69 525.02,617.69 527.82,617.69 530.63,617.69 533.43,617.69 536.23,617.69 539.04,617.69 541.84,617.69 544.65,617.69 547.45,617.69 550.25,617.69 553.06,617.69 555.86,617.69 558.67,617.69 561.47,617.69 564.28,617.69 567.08,617.69 569.88,617.69 572.69,617.69 575.49,617.69 578.30,617.69 581.10,617.69 583.90,617.69 586.71,617.69 589.51,617.69 592.32,617.69 595.12,617.69 597.93,617.69 600.73,617.69 603.53,617.69 606.34,617.69 609.14,617.69 611.95,617.69 614.75,617.69 617.56,617.69 620.36,617.69 623.16,617.69 625.97,617.69 628.77,617.69 631.58,617.69 634.38,617.69 637.18,617.69 639.99,617.69 642.79,617.69 645.60,617.69 648.40,617.69 651.21,617.69 654.01,617.69 656.81,617.69 659.62,617.69 662.42,617.69 665.23,617.69 668.03,617.69 670.83,617.69 673.64,617.69 676.44,617.69 679.25,617.69 682.05,617.69 684.86,617.69 687.66,617.69 690.46,617.69 693.27,617.69 696.07,617.69 698.88,617.69 701.68,617.69 704.48,617.69 707.29,617.69 710.09,617.69 712.90,617.69 715.70,617.69 718.51,617.69 721.31,617.69 724.11,617.69 726.92,617.69 729.72,617.69 732.53,617.69 735.33,617.69 738.13,617.69 740.94,617.69 743.74,617.69 746.55,617.69 749.35,617.69 752.16,617.69 754.96,617.69 757.76,617.69 760.57,617.69 763.37,617.69 766.18,617.69 768.98,617.69 771.78,617.69 774.59,617.69 777.39,617.69 780.20,617.69 783.00,617.69 785.81,617.69 788.61,617.69 791.41,617.69 794.22,617.69 797.02,617.69 799.83,617.69 802.63,617.69 805.43,617.69 808.24,617.69 811.04,617.69 813.85,617.69 816.65,617.69 819.46,617.69 822.26,617.69 825.06,617.69 827.87,617.69 830.67,617.69 833.48,617.69 836.28,617.69 839.08,617.69 841.89,617.69 844.69,617.69 847.50,617.69 850.30,617.69 853.11,617.69 855.91,617.69 858.71,617.69 861.52,617.69 864.32,617.69 867.13,617.69 869.93,617.69 872.73,617.69 875.54,617.69 878.34,617.69 881.15,617.69 883.95,617.69 886.76,617.69 889.56,617.69 892.36,617.69 895.17,617.69 897.97,617.69 900.78,617.69 903.58,617.69 906.38,617.69 909.19,617.69 911.99,617.69 914.80,617.69 917.60,617.69 920.41,617.69 923.21,617.69 926.01,617.69 928.82,617.69 931.62,617.69 934.43,617.69 937.23,617.69 940.03,617.69 942.84,617.69 945.64,617.69 948.45,617.69 951.25,617.69 954.06,617.69 956.86,617.69 959.66,617.69 962.47,617.69 965.27,617.69 968.08,617.69 970.88,617.69 973.68,617.69 976.49,617.69 979.29,617.69 982.10,617.69 984.90,617.69 987.71,617.69 990.51,617.69 993.31,617.69 996.12,617.69 998.92,617.69 1001.73,617.69 1004.53,617.69 1007.33,617.69 1010.14,617.69 1012.94,617.69 1015.75,617.69 1018.55,617.69 1021.36,617.69 1024.16,617.69 1026.96,617.69 1029.77,617.69 1032.57,617.69 1035.38,617.69 1038.18,617.69 1040.98,617.69 1043.79,617.69 1046.59,617.69 1049.40,617.69 1052.20,617.69 1055.01,617.69 1057.81,617.69 1060.61,617.69 1063.42,617.69 1066.22,617.69 1069.03,617.69 1071.83,617.69 1074.63,617.69 1077.44,617.69 1080.24,617.69 1083.05,617.69 1085.85,617.69 1088.66,617.69 1091.46,617.69 1094.26,617.69 1097.07,617.69 1099.87,617.69 1102.68,617.69 1105.48,617.69 1108.29,617.69 1111.09,617.69 1113.89,617.69 1116.70,617.69 1119.50,617.69 1122.31,617.69 1125.11,617.69 1127.91,617.69 1130.72,617.69 1133.52,617.69 1136.33,617.69 1139.13,617.69 1141.94,617.69 1144.74,617.69 1147.54,617.69 1150.35,617.69 1153.15,617.69 1155.96,617.69 1158.76,617.69 1161.56,617.69 1164.37,617.69 1167.17,617.69 1169.98,617.69 1172.78,617.69 1175.59,617.69 1178.39,617.69 1181.19,617.69 1184.00,617.69 1186.80,617.69 1189.61,617.69 1192.41,617.69 1195.21,617.69 1198.02,617.69 1200.82,617.69 1203.63,617.69 1206.43,617.69 1209.24,617.69 1212.04,617.69 1214.84,617.69 1217.65,617.69 1220.45,617.69 1223.26,617.69 1226.06,617.69 1228.86,617.69 1231.67,617.69 1234.47,617.69 1237.28,617.69 1240.08,617.69 1242.89,617.69 1245.69,617.69 1248.49,617.69 1251.30,617.69 1254.10,617.69 1256.91,617.69 1259.71,617.69 1262.51,617.69 1265.32,617.69 1268.12,617.69 1270.93,617.69 1273.73,617.69 1276.54,617.69 1279.34,617.69 1282.14,617.69 1284.95,617.69 1287.75,617.69 1290.56,617.69 1293.36,617.69 1296.16,617.69 1298.97,617.69 1301.77,617.69 1304.58,617.69 1307.38,617.69 1310.19,617.69 1312.99,615.97 1315.79,615.97 1318.60,615.97 1320.00,615.97" fill="none" stroke="#ff9f43" stroke-width="3.0"/>
<circle cx="1320.00" cy="615.97" r="5" fill="#ff9f43"/>
<text class="value" x="1330.0" y="606.0" fill="#ff9f43">rule: -0.187</text>
<text class="tick" x="110.0" y="714" text-anchor="middle">28 Dec 11:00</text>
<text class="tick" x="412.5" y="714" text-anchor="middle">29 Dec 04:58</text>
<text class="tick" x="715.0" y="714" text-anchor="middle">29 Dec 22:57</text>
<text class="tick" x="1017.5" y="714" text-anchor="middle">30 Dec 16:56</text>
<text class="tick" x="1320.0" y="714" text-anchor="middle">31 Dec 10:55</text>
</svg>
